<?xml version="1.0" encoding="UTF-8"?>
<!DOCTYPE svg PUBLIC "-//W3C//DTD SVG 1.1//EN" "http://www.w3.org/Graphics/SVG/1.1/DTD/svg11.dtd">
<!-- Creator: CorelDRAW 2018 (64-Bit Evaluation Version) -->
<svg xmlns="http://www.w3.org/2000/svg" xml:space="preserve" width="5.82053in" height="1.2947in" version="1.1" style="shape-rendering:geometricPrecision; text-rendering:geometricPrecision; image-rendering:optimizeQuality; fill-rule:evenodd; clip-rule:evenodd"
viewBox="0 0 5821.61 1294.95"
 xmlns:xlink="http://www.w3.org/1999/xlink">
 <defs>
  <style type="text/css">
   <![CDATA[
    .fil1 {fill:#4B4B4D}
    .fil0 {fill:#D23641}
    .fil2 {fill:#D23641;fill-rule:nonzero}
   ]]>
  </style>
 </defs>
 <g id="Layer_x0020_1">
  <metadata id="CorelCorpID_0Corel-Layer"/>
  <g id="_2638501310192">
   <path class="fil0" d="M2710.92 529.34c0,110.39 89.49,199.89 199.89,199.89 110.39,0 199.89,-89.5 199.89,-199.89 0,-1.17 -0.01,-2.35 -0.03,-3.5 -33.68,76.95 -110.49,130.7 -199.86,130.7 -89.37,0 -166.18,-53.75 -199.86,-130.7 -0.02,1.16 -0.03,2.34 -0.03,3.5zm114.99 -291.79c13.74,33.35 46.43,56.82 84.56,56.82 38.22,0 70.98,-23.59 84.65,-57.07 4.4,-10.77 6.82,-22.57 6.82,-34.93 0,-36.79 -22.87,-41.39 -22.87,-55.2 0,-13.79 13.72,-32.19 -13.72,-55.19 13.72,23 -9.14,27.6 -9.14,50.59 0,23 9.14,23 9.14,41.39 0,10.16 -8.19,18.4 -18.29,18.4 -10.1,0 -18.29,-8.24 -18.29,-18.4 0,-18.39 18.29,-36.79 18.29,-64.38 0,-27.6 -4.58,-36.81 -18.3,-59.79 -13.72,-23 -36.59,-41.39 -18.3,-59.8 -27.44,9.2 -13.72,45.99 -13.72,68.99 0,23 -18.3,36.8 -18.3,64.39 0,27.6 13.72,32.19 13.72,50.59 0,10.16 -8.18,18.4 -18.29,18.4 -10.11,0 -18.3,-8.24 -18.3,-18.4 0,-18.39 9.15,-18.39 9.15,-41.39 0,-22.99 -22.87,-27.59 -9.15,-50.59 -27.44,23 -13.72,41.39 -13.72,55.2 0,13.8 -22.87,18.39 -22.87,55.19l0.01 0c0,12.46 2.46,24.34 6.92,35.18zm-60.47 237.26c0,80.29 65.09,145.38 145.38,145.38 80.29,0 145.38,-65.08 145.38,-145.38 0,-80.29 -65.09,-145.37 -145.38,-145.37 -80.29,0 -145.38,65.08 -145.38,145.37z"/>
   <path class="fil1" d="M-0 858.75l3413.92 0c-4.08,-9.4 -6.12,-20.51 -6.12,-33.34l-3407.8 0 0 33.34zm3686.92 0l2134.7 0 0 -33.34 -2128.46 0c0,12.83 -2.08,23.94 -6.24,33.34z"/>
   <polygon class="fil1" points="-0,1294.95 5821.61,1294.95 5821.61,1261.61 -0,1261.61 "/>
   <path class="fil2" d="M261.09 1206.39l-0.83 -133.26 -63.5 106.94 -43.45 0 -63.5 -102.35 0 128.66 -89.82 0 0 -292.42 81.04 0 95.25 155.82 92.74 -155.82 81.04 0 0.84 292.42 -89.82 0zm2327.43 -210.33c9.88,5.99 17.75,14.48 23.6,25.48 1.79,3.37 3.31,6.92 4.56,10.66l-122.74 0c1.24,-3.73 2.76,-7.28 4.56,-10.66 5.85,-11 13.72,-19.49 23.6,-25.48 9.89,-5.99 20.96,-8.98 33.21,-8.98 12.25,0 23.32,3 33.21,8.98zm27.87 92.95c-1.19,3.42 -2.61,6.7 -4.27,9.82 -5.85,11 -13.72,19.49 -23.6,25.48 -9.89,5.99 -20.96,8.98 -33.21,8.98 -12.25,0 -23.32,-3 -33.21,-8.98 -9.89,-5.99 -17.76,-14.48 -23.6,-25.48 -1.66,-3.12 -3.08,-6.4 -4.27,-9.82l122.17 0zm-204.79 -107.57c-14.2,23.26 -21.3,49.5 -21.3,78.74 0,29.25 7.1,55.49 21.3,78.75 14.2,23.25 33.84,41.42 58.9,54.51 25.07,13.09 53.33,19.63 84.8,19.63 31.47,0 59.74,-6.54 84.8,-19.63 25.07,-13.09 44.7,-31.26 58.9,-54.51 14.2,-23.26 21.3,-49.5 21.3,-78.75 0,-29.24 -7.1,-55.49 -21.3,-78.74 -14.2,-23.25 -33.84,-41.43 -58.9,-54.52 -25.06,-13.09 -53.33,-19.63 -84.8,-19.63 -31.47,0 -59.74,6.54 -84.8,19.63 -25.06,13.09 -44.7,31.27 -58.9,54.52zm-1860.61 231.63c-31.47,0 -59.74,-6.54 -84.8,-19.63 -25.06,-13.09 -44.7,-31.26 -58.9,-54.51 -14.2,-23.26 -21.3,-49.5 -21.3,-78.75 0,-29.24 7.1,-55.49 21.3,-78.74 14.2,-23.25 33.84,-41.43 58.9,-54.52 25.07,-13.09 53.33,-19.63 84.8,-19.63 31.47,0 59.74,6.54 84.8,19.63 25.07,13.09 44.7,31.27 58.9,54.52 14.2,23.26 21.3,49.5 21.3,78.74 0,29.25 -7.1,55.49 -21.3,78.75 -14.2,23.25 -33.84,41.42 -58.9,54.51 -25.06,13.09 -53.33,19.63 -84.8,19.63zm0 -79.78c12.25,0 23.32,-3 33.21,-8.98 9.88,-5.99 17.75,-14.48 23.6,-25.48 5.85,-11 8.77,-23.88 8.77,-38.65 0,-14.76 -2.92,-27.64 -8.77,-38.64 -5.85,-11 -13.72,-19.49 -23.6,-25.48 -9.89,-5.99 -20.96,-8.98 -33.21,-8.98 -12.25,0 -23.32,3 -33.21,8.98 -9.89,5.99 -17.76,14.48 -23.6,25.48 -5.85,11 -8.77,23.88 -8.77,38.64 0,14.76 2.93,27.64 8.77,38.65 5.85,11 13.72,19.49 23.6,25.48 9.89,5.99 20.96,8.98 33.21,8.98zm488.76 -219.32l0 292.42 -98.59 0 0 -107.78 -91.06 0 0 107.78 -98.59 0 0 -292.42 98.59 0 0 103.6 91.06 0 0 -103.6 98.59 0zm274.45 76.45l-125.74 0 0 215.97 -96.92 0 0 -292.42 222.66 0 0 76.45zm160.41 222.65c-31.47,0 -59.74,-6.54 -84.8,-19.63 -25.06,-13.09 -44.7,-31.26 -58.9,-54.51 -14.2,-23.26 -21.3,-49.5 -21.3,-78.75 0,-29.24 7.1,-55.49 21.3,-78.74 14.2,-23.25 33.84,-41.43 58.9,-54.52 25.07,-13.09 53.33,-19.63 84.8,-19.63 31.47,0 59.74,6.54 84.8,19.63 25.07,13.09 44.7,31.27 58.9,54.52 14.2,23.26 21.3,49.5 21.3,78.74 0,29.25 -7.1,55.49 -21.3,78.75 -14.2,23.25 -33.84,41.42 -58.9,54.51 -25.06,13.09 -53.33,19.63 -84.8,19.63zm0 -79.78c12.25,0 23.32,-3 33.21,-8.98 9.88,-5.99 17.75,-14.48 23.6,-25.48 5.85,-11 8.77,-23.88 8.77,-38.65 0,-14.76 -2.92,-27.64 -8.77,-38.64 -5.85,-11 -13.72,-19.49 -23.6,-25.48 -9.89,-5.99 -20.96,-8.98 -33.21,-8.98 -12.25,0 -23.32,3 -33.21,8.98 -9.89,5.99 -17.76,14.48 -23.6,25.48 -5.85,11 -8.77,23.88 -8.77,38.64 0,14.76 2.93,27.64 8.77,38.65 5.85,11 13.72,19.49 23.6,25.48 9.89,5.99 20.96,8.98 33.21,8.98zm477.47 -219.32l0 292.42 -96.92 0 0 -215.97 -66.84 0 -0.83 33.84c-1.11,41.77 -4.45,76.02 -10.03,102.76 -5.57,26.73 -15.32,47.55 -29.24,62.45 -13.92,14.9 -33.84,22.35 -59.74,22.35 -13.09,0 -27.01,-1.81 -41.78,-5.43l5.01 -78.96c3.62,0.83 7.24,1.26 10.86,1.26 10.31,0 18.17,-4.18 23.6,-12.53 5.43,-8.35 9.12,-19.5 11.07,-33.42 1.95,-13.92 3.34,-32.16 4.17,-54.73l3.76 -114.04 246.88 0zm426.1 76.45l-85.64 0 0 215.97 -96.92 0 0 -215.97 -85.64 0 0 -76.45 268.19 0 0 76.45zm518.41 -76.45c27.02,0 50.55,4.45 70.6,13.37 20.05,8.91 35.51,21.72 46.37,38.43 10.86,16.71 16.29,36.21 16.29,58.49 0,22.28 -5.43,41.77 -16.29,58.48 -10.86,16.71 -26.32,29.52 -46.37,38.43 -20.05,8.92 -43.58,13.37 -70.6,13.37l-42.19 0 0 71.86 -98.59 0 0 -292.42 140.78 0zm-6.26 144.54c13.37,0 23.39,-3 30.08,-8.98 6.69,-5.99 10.03,-14.41 10.03,-25.27 0,-10.87 -3.34,-19.29 -10.03,-25.28 -6.68,-5.98 -16.71,-8.98 -30.08,-8.98l-35.92 0 0 68.51 35.92 0zm169.19 -144.54l96.92 0 0 152.06 100.68 -152.06 92.74 0 0 292.42 -96.92 0 0 -151.64 -100.25 151.64 -93.16 0 0 -292.42zm342.13 0l96.92 0 0 152.06 100.68 -152.06 92.74 0 0 292.42 -96.92 0 0 -151.64 -100.25 151.64 -93.16 0 0 -292.42zm144.96 -16.71c-32.31,0 -55.56,-5.99 -69.76,-17.96 -14.2,-11.97 -21.31,-29.94 -21.31,-53.89l65.59 0c0,9.46 1.88,16.29 5.64,20.46 3.76,4.18 10.38,6.26 19.84,6.26 9.47,0 16.22,-2.08 20.26,-6.26 4.04,-4.17 6.06,-11 6.06,-20.46l65.58 0c0,23.95 -7.24,41.91 -21.72,53.89 -14.48,11.97 -37.88,17.96 -70.18,17.96zm485.41 16.71l0 292.42 -98.59 0 0 -107.78 -91.06 0 0 107.78 -98.59 0 0 -292.42 98.59 0 0 103.6 91.06 0 0 -103.6 98.59 0zm426.1 76.45l-85.64 0 0 215.97 -96.92 0 0 -215.97 -85.64 0 0 -76.45 268.19 0 0 76.45zm207.61 109.86l0 106.11 -98.59 0 0 -107.36 -110.28 -185.06 104.02 0 59.74 101.1 60.15 -101.1 95.25 0 -110.28 186.31zm544.73 -186.31l0 292.42 -408.13 0 0 -292.42 96.92 0 0 215.97 58.9 0 0 -215.97 96.92 0 0 215.97 58.48 0 0 -215.97 96.92 0zm160.83 -6.68c30.36,0 57.37,6.48 81.04,19.42 23.67,12.95 42.19,31.05 55.56,54.31 13.37,23.25 20.05,49.64 20.05,79.16 0,29.53 -6.68,55.91 -20.05,79.16 -13.37,23.26 -31.89,41.36 -55.56,54.31 -23.67,12.95 -50.68,19.42 -81.04,19.42 -28.41,0 -53.75,-5.01 -76.03,-15.03 -22.28,-10.03 -40.66,-24.5 -55.14,-43.45l62.24 -55.56c18.1,22.83 39.4,34.26 63.91,34.26 13.64,0 25.27,-3.35 34.88,-10.03 9.61,-6.69 16.78,-16.15 21.51,-28.41l-91.06 0 0 -71.01 90.65 0c-4.73,-11.7 -11.97,-20.75 -21.72,-27.15 -9.75,-6.41 -21.17,-9.61 -34.25,-9.61 -24.51,0 -45.81,11.42 -63.91,34.26l-62.24 -55.56c14.48,-18.94 32.86,-33.42 55.14,-43.45 22.28,-10.03 47.62,-15.04 76.03,-15.04zm293.67 0c30.36,0 57.37,6.48 81.04,19.42 23.67,12.95 42.19,31.05 55.56,54.31 13.37,23.25 20.05,49.64 20.05,79.16 0,29.53 -6.68,55.91 -20.05,79.16 -13.37,23.26 -31.89,41.36 -55.56,54.31 -23.67,12.95 -50.68,19.42 -81.04,19.42 -28.41,0 -53.75,-5.01 -76.03,-15.03 -22.28,-10.03 -40.66,-24.5 -55.14,-43.45l62.24 -55.56c18.1,22.83 39.4,34.26 63.91,34.26 13.64,0 25.27,-3.35 34.88,-10.03 9.61,-6.69 16.78,-16.15 21.51,-28.41l-91.06 0 0 -71.01 90.65 0c-4.73,-11.7 -11.97,-20.75 -21.72,-27.15 -9.75,-6.41 -21.17,-9.61 -34.25,-9.61 -24.51,0 -45.81,11.42 -63.91,34.26l-62.24 -55.56c14.48,-18.94 32.86,-33.42 55.14,-43.45 22.28,-10.03 47.62,-15.04 76.03,-15.04z"/>
  </g>
 </g>
</svg>
